<?xml version="1.0" encoding="utf-8"?>
<!-- Generator: Adobe Illustrator 26.0.3, SVG Export Plug-In . SVG Version: 6.00 Build 0)  -->
<svg version="1.1" id="Layer_1" xmlns="http://www.w3.org/2000/svg" xmlns:xlink="http://www.w3.org/1999/xlink" x="0px" y="0px"
	 viewBox="0 0 511.5 167.3" style="enable-background:new 0 0 511.5 167.3;" xml:space="preserve">
<style type="text/css">
	.st0{clip-path:url(#SVGID_00000150819383345697937840000006887806827491399098_);}
	.st1{fill:url(#SVGID_00000110456625612790385380000001577232385055411385_);}
	.st2{fill:url(#SVGID_00000090985279930075588920000016743565640688738205_);}
	.st3{fill:url(#SVGID_00000060023636006755155080000002838086376724594836_);}
	.st4{fill:url(#SVGID_00000174598881551966899200000012362399858689404597_);}
	.st5{fill:#F9F9F9;}
</style>
<path d="M511.5,144.7c0,12.5-10.1,22.6-22.6,22.6l0,0H22.6C10.1,167.3,0,157.2,0,144.7V22.6C0,10.1,10.1,0,22.6,0h466.3
	c12.5,0,22.6,10.1,22.6,22.6V144.7z"/>
<g id="PLAY">
	<g>
		<g>
			<defs>
				<path id="SVGID_1_" d="M110.8,73.7l-23-13.4L43.3,34.6c-2.5-1.4-4.9-0.6-4.9,2.4v104.7c0,2.2,1.8,3.2,3.9,2l45.5-26.3l23.1-13.3
					L133,91.3c2.6-1.5,2.4-3.6,0.2-4.7S110.8,73.7,110.8,73.7z"/>
			</defs>
			<clipPath id="SVGID_00000142883125115511786480000018211743876146718135_">
				<use xlink:href="#SVGID_1_"  style="overflow:visible;"/>
			</clipPath>
			<g style="clip-path:url(#SVGID_00000142883125115511786480000018211743876146718135_);">
				
					<linearGradient id="SVGID_00000130620017907101769740000010308574125589600427_" gradientUnits="userSpaceOnUse" x1="66.95" y1="630.2" x2="66.95" y2="743.5" gradientTransform="matrix(1 0 0 1 0 -598)">
					<stop  offset="0" style="stop-color:#257DB0"/>
					<stop  offset="0.21" style="stop-color:#3C90B3"/>
					<stop  offset="0.74" style="stop-color:#73BDB9"/>
					<stop  offset="1" style="stop-color:#89CEBC"/>
				</linearGradient>
				<polygon style="fill:url(#SVGID_00000130620017907101769740000010308574125589600427_);" points="38.4,32.2 38.4,88.9 
					38.4,145.5 95.5,88.9 				"/>
				
					<linearGradient id="SVGID_00000063617497855147181560000010787240601952684208_" gradientUnits="userSpaceOnUse" x1="38.4" y1="658.35" x2="110.8" y2="658.35" gradientTransform="matrix(1 0 0 1 0 -598)">
					<stop  offset="0" style="stop-color:#51BFAC"/>
					<stop  offset="1" style="stop-color:#DEE899"/>
				</linearGradient>
				<polygon style="fill:url(#SVGID_00000063617497855147181560000010787240601952684208_);" points="110.8,73.7 87.8,60.3 
					38.4,31.8 38.4,32.2 95.5,88.9 				"/>
				
					<linearGradient id="SVGID_00000164513510427312020070000005090026777220992133_" gradientUnits="userSpaceOnUse" x1="74.6" y1="686.9" x2="74.6" y2="743.97" gradientTransform="matrix(1 0 0 1 0 -598)">
					<stop  offset="0" style="stop-color:#EB403D"/>
					<stop  offset="0.19" style="stop-color:#D64252"/>
					<stop  offset="0.74" style="stop-color:#9F4887"/>
					<stop  offset="1" style="stop-color:#894A9C"/>
				</linearGradient>
				<polygon style="fill:url(#SVGID_00000164513510427312020070000005090026777220992133_);" points="38.4,145.5 38.4,145.9 
					87.8,117.4 110.8,104.1 95.5,88.9 				"/>
				
					<linearGradient id="SVGID_00000126296938157679523630000011084887209957101751_" gradientUnits="userSpaceOnUse" x1="116.35" y1="671.65" x2="116.35" y2="702.05" gradientTransform="matrix(1 0 0 1 0 -598)">
					<stop  offset="0" style="stop-color:#F48779"/>
					<stop  offset="0.61" style="stop-color:#FAB076"/>
					<stop  offset="1" style="stop-color:#FDC674"/>
				</linearGradient>
				<polygon style="fill:url(#SVGID_00000126296938157679523630000011084887209957101751_);" points="110.8,73.7 95.5,88.9 
					110.8,104.1 137.2,88.9 				"/>
			</g>
		</g>
	</g>
</g>
<g>
	<path class="st5" d="M398.1,111c-2,0-4-0.4-5.9-1.2c-1.8-0.8-3.3-2.1-4.5-3.7h-0.4c0.2,1.8,0.4,3.6,0.4,5.5v13.6h-5V77.5h4l0.7,4.5
		h0.2c1.1-1.7,2.7-3,4.5-3.9c1.8-0.8,3.8-1.2,5.9-1.2c4.4,0,7.7,1.5,10.1,4.5s3.6,7.2,3.6,12.6s-1.2,9.6-3.6,12.6
		C405.6,109.5,401.9,111.2,398.1,111z M397.3,81.1c-3.4,0-5.8,0.9-7.3,2.8s-2.3,4.8-2.3,8.9v1.1c0,4.7,0.8,8,2.3,9.9
		c1.5,2,4,3,7.4,3c2.7,0.1,5.2-1.2,6.7-3.4c1.6-2.3,2.4-5.5,2.4-9.5c0-4.1-0.8-7.3-2.4-9.4C402.6,82.2,400,81,397.3,81.1L397.3,81.1
		z"/>
	<path class="st5" d="M423.3,110.4h-5V63.6h5V110.4z"/>
	<path class="st5" d="M452,110.4l-1-4.7h-0.2c-1.3,1.8-3,3.2-4.9,4.2c-1.9,0.8-4,1.2-6.1,1.1c-3.3,0-5.8-0.8-7.7-2.5
		c-1.9-1.7-2.8-4.1-2.8-7.2c0-6.7,5.3-10.2,16-10.5l5.6-0.2v-2c0-2.6-0.5-4.5-1.7-5.7s-2.9-1.9-5.4-1.9c-3.3,0.1-6.4,1-9.3,2.5
		l-1.5-3.8c1.7-0.9,3.5-1.6,5.3-2.1c1.9-0.5,3.9-0.7,5.8-0.8c3.9,0,6.8,0.9,8.7,2.6c1.9,1.8,2.8,4.5,2.8,8.4v22.5L452,110.4z
		 M440.7,106.9c2.7,0.2,5.3-0.8,7.3-2.6c1.9-1.9,2.8-4.5,2.7-7.2v-3l-5,0.2c-4,0.2-6.8,0.8-8.6,1.9c-1.8,1.1-2.8,3-2.6,5.1
		c-0.1,1.6,0.5,3.1,1.6,4.1C437.4,106.5,439.1,107,440.7,106.9L440.7,106.9z"/>
	<path class="st5" d="M458.6,77.5h5.4l7.2,18.8c1.2,3,2.2,6.1,2.9,9.3h0.2c0.3-1,0.8-2.8,1.6-5.2s3.6-10.1,8.2-22.8h5.4L475.3,115
		c-1.4,3.7-3,6.3-4.9,7.9s-4.4,2.4-6.9,2.3c-1.5,0-3-0.2-4.5-0.5v-4c1.2,0.3,2.5,0.4,3.7,0.4c3.4,0,5.9-1.9,7.3-5.8l1.8-4.7
		L458.6,77.5z"/>
</g>
<g>
	<path class="st5" d="M305.6,80.5c3,2.1,4.8,5.6,4.9,9.3c0,5.1-2.9,7.5-5.8,9.8c-0.9,0.9-1.9,1.9-1.9,3.4c0.1,1.2,0.7,2.4,1.8,3
		l2.5,1.9c3,2.6,5.8,4.9,5.8,9.7c0,6.5-6.3,13-18.1,13c-10,0-14.8-4.8-14.8-9.9c0-2.5,1.2-6,5.3-8.4c4.3-2.6,10.1-3,13.2-3.2
		c-1-1.2-2.1-2.6-2.1-4.7c0-0.9,0.3-1.9,0.7-2.7c-0.8,0.1-1.5,0.1-2.2,0.1c-7.3,0-11.4-5.4-11.4-10.8c0.1-3.6,1.7-6.9,4.4-9.2
		c3.9-3.2,8.6-3.8,12.3-3.8h14.2l-4.4,2.5L305.6,80.5z M300.7,111.1c-0.5-0.1-1.1-0.1-1.6-0.1c-2.5,0-4.9,0.4-7.2,1.1
		c-1.5,0.6-5.9,2.2-5.9,7.1s4.8,8.4,12.1,8.4c6.6,0,10.1-3.2,10.1-7.4C308.2,116.7,306,114.8,300.7,111.1z M302.7,98
		c1.2-1.4,1.8-3.2,1.7-5c0-5-3-12.7-8.7-12.7c-1.9,0-3.6,0.9-4.8,2.3c-1.1,1.5-1.6,3.3-1.5,5.1c0,4.6,2.7,12.3,8.6,12.3
		C299.8,99.9,301.5,99.2,302.7,98L302.7,98z"/>
	<path class="st5" d="M262.2,110c-9,0.3-16.5-6.7-16.8-15.7c0-0.2,0-0.4,0-0.6c0-9,7.4-16.7,17.8-16.7c8.9-0.2,16.2,6.9,16.4,15.7
		c0,0.2,0,0.3,0,0.5C279.7,101.4,273.4,110,262.2,110z M270.8,104.4c1.5-2.3,2.2-4.9,2.1-7.6c0-6.1-2.9-17.6-11.4-17.6
		c-2.3,0-4.5,0.9-6.2,2.3c-2.7,2.4-3.2,5.4-3.2,8.4c0,6.8,3.4,18,11.7,18C266.6,107.9,269.2,106.6,270.8,104.4L270.8,104.4z"/>
	<path class="st5" d="M224.9,110c-11,0-16.8-8.5-16.8-16.2c0-9,7.4-16.7,17.8-16.7c8.9-0.2,16.2,6.9,16.4,15.7c0,0.2,0,0.3,0,0.5
		C242.4,101.4,236.1,110,224.9,110z M233.5,104.4c1.5-2.3,2.2-4.9,2.1-7.6c0-6.1-2.9-17.6-11.4-17.6c-2.3,0-4.5,0.9-6.2,2.4
		c-2.7,2.4-3.2,5.4-3.2,8.4c0,6.8,3.4,18,11.7,18C229.3,107.9,231.9,106.6,233.5,104.4L233.5,104.4z"/>
	<path class="st5" d="M202.9,108.9l-9.9,2.3c-3.8,0.7-7.6,1.1-11.4,1.2c-19.1,0-26.4-14.1-26.4-25c0-13.4,10.3-25.9,27.9-25.9
		c3.6,0,7.1,0.5,10.6,1.5c3.3,0.8,6.4,2.3,9.1,4.3l-5.8,5.5l-2.4,0.6l1.7-2.8c-2.4-2.3-6.6-6.5-14.8-6.5c-10.9,0-19.2,8.3-19.2,20.4
		c0,13,9.4,25.2,24.5,25.2c3,0.1,6-0.5,8.8-1.7V96.8l-10.4,0.6l5.5-3h14.7l-1.8,1.7c-0.4,0.3-0.6,0.7-0.7,1.1
		c-0.1,0.6-0.1,2.6-0.1,3.3L202.9,108.9z"/>
	<path class="st5" d="M327.5,107c-2.3-0.2-2.8-0.6-2.8-3.3V64.5c0-0.2,0-0.3,0-0.4c0.3-2.4,1-2.8,3.1-4.1H318l-5.2,2.5h5.3v42.7
		c0,1.4-0.3,1.6-1.9,3.7h12.2l2.5-1.5C329.8,107.2,328.6,107.1,327.5,107z"/>
	<path class="st5" d="M355.6,107.6c-0.8,0.4-1.5,0.9-2.3,1.2c-2.1,0.9-4.4,1.4-6.7,1.3c-3.3,0.1-6.5-0.8-9.1-2.7
		c-4.9-3.4-7-9.3-7-14.5c0-10.7,8.7-15.9,15.7-15.9c2.5,0,4.9,0.6,7.1,1.9c2.4,1.6,4.1,4,4.8,6.8L342,92.3l-5.3,0.4
		c1.7,8.7,7.6,13.8,14.2,13.8c2.9-0.1,5.8-0.9,8.4-2.4L355.6,107.6z M349.2,87.1c1.3-0.5,2-0.9,2-1.8c0-2.8-3.1-5.9-6.8-5.9
		c-2.8,0-7.9,2.1-7.9,9.6c0,1.2,0.1,2.4,0.2,3.6L349.2,87.1z"/>
	<g>
		<path class="st5" d="M362.3,77.6v4.5h-0.6v-4.5h-1.5v-0.5h3.5v0.5H362.3z"/>
		<path class="st5" d="M368.4,82.1v-4.6l0,0l-1.4,4.6h-0.4l-1.4-4.6l0,0v4.6h-0.5v-5h0.9l1.3,4l0,0l1.2-4h0.9v5H368.4z"/>
	</g>
</g>
<g>
	<path class="st5" d="M187.6,44.8h-5.8c-0.4-2.3-0.9-4.5-1.6-6.8h-8.4c-0.8,2.1-1.4,4.4-1.6,6.8h-5.5c0-0.5,1.4-4.4,4.3-11.6
		c1.6-3.9,3.1-7.9,4.3-12.1h6.9c1,4,2.3,7.9,3.8,11.8C185.4,36.9,186.6,40.8,187.6,44.8z M179.2,34.6c-2-6.3-3.1-9.7-3.1-10.2h-0.3
		c-0.9,3.4-2,6.8-3.3,10.2H179.2z"/>
	<path class="st5" d="M211,44.8h-4.5c0-0.5-1.6-3.1-5-7.8c-3.5-5-5.5-8.4-5.9-10.3h-0.3c0.3,2.4,0.4,4.8,0.5,7.2
		c0,3,0.1,6.7,0.3,10.9h-4.4c0.1-3.8,0.3-7.8,0.3-12.3s-0.1-8.2-0.3-11.3h5.4c0,0.6,1.5,3.1,4.5,7.7c2.3,3,4,6.3,5.5,9.7h0.3
		c-0.3-2.4-0.4-4.8-0.4-7.3c0-3.3-0.1-6.7-0.3-10.2h4.5c-0.1,3-0.3,6.8-0.3,11.3S210.9,41.2,211,44.8z"/>
	<path class="st5" d="M237.3,32.2c0,3.3-1.1,6.5-3.4,9.1c-2.4,2.6-5.8,4-9.3,3.8c-1.8,0-4.3,0-7.4-0.3c0.1-3.6,0.3-7.8,0.3-12.3
		c0-4.4-0.1-8.2-0.3-11.3h3.1h2.3h2c4.4,0,7.5,1.1,9.6,3.3C236.3,26.6,237.3,29.3,237.3,32.2z M232.4,33c0.1-2.1-0.6-4.3-2-5.9
		c-1.6-1.6-3.9-2.5-6.2-2.4c-0.8,0-1.4,0.1-2.1,0.1c0.1,2.4,0.1,4.9,0.1,7.5s0,5.8,0.1,8.6c0.8,0.1,1.5,0.3,2.4,0.3
		c2.3,0.1,4.4-0.8,5.8-2.4C231.8,37.1,232.4,35.1,232.4,33z"/>
	<path class="st5" d="M261.6,44.8h-5.4c-0.8-2.8-1.9-5.4-3.3-7.9c-0.9-1-2.3-1.6-3.6-1.5h-2c0,3.1,0,6.3,0.1,9.4h-5
		c0.1-3.6,0.3-7.8,0.3-12.3c0-4.4-0.1-8.2-0.3-11.3h3.1h2.3c1.1,0,2.3,0,3.1,0c5.5,0,8.3,1.9,8.3,5.7c0,2.9-1.9,5.5-4.8,6.3v0.3
		c1.4,0.5,2.5,1.5,3.3,2.9C259.3,39,260.6,41.9,261.6,44.8z M254.8,28.1c0-2.4-1.5-3.6-4.7-3.6c-1,0-2,0.1-3,0.3
		c0.1,1.9,0.3,4.3,0.3,7.3h1.6C252.8,32.1,254.8,30.7,254.8,28.1L254.8,28.1z"/>
	<path class="st5" d="M287.6,32.6c0.1,3.4-1.1,6.7-3.4,9.2c-2.1,2.4-5.3,3.8-8.4,3.6c-3,0.1-5.9-1.1-8-3.4c-2.1-2.3-3.4-5.4-3.3-8.6
		c-0.1-3.4,1.1-6.7,3.4-9.2c2.1-2.4,5.3-3.8,8.4-3.6c3,0,5.9,1.1,8,3.4C286.6,26.3,287.7,29.3,287.6,32.6z M282.6,33.1
		c0.1-2.3-0.6-4.4-1.9-6.2c-1.1-1.5-2.9-2.4-4.8-2.4c-1.8,0-3.5,0.9-4.5,2.4c-1.3,1.8-1.9,3.9-1.9,6c-0.1,2.3,0.6,4.4,2,6.2
		c1.1,1.5,2.9,2.4,4.8,2.4c1.8,0,3.5-0.9,4.5-2.4C281.9,37.3,282.7,35.3,282.6,33.1L282.6,33.1z"/>
	<path class="st5" d="M297.8,44.8h-5c0.1-3.8,0.3-7.8,0.3-12.3s0-8.2-0.3-11.3h5c-0.1,3-0.3,6.8-0.3,11.3S297.7,41.2,297.8,44.8z"/>
	<path class="st5" d="M324.2,32.2c0,3.3-1.1,6.5-3.4,9.1c-2.4,2.6-5.8,4-9.3,3.8c-1.8,0-4.3,0-7.4-0.3c0.1-3.6,0.3-7.8,0.3-12.3
		c0-4.4-0.1-8.2-0.3-11.3h3.1h2.3h2c4.4,0,7.5,1.1,9.6,3.3C323.1,26.6,324.2,29.3,324.2,32.2z M319.2,33c0.1-2.1-0.6-4.3-2-5.9
		c-1.6-1.6-3.9-2.5-6.2-2.4c-0.8,0-1.4,0.1-2.1,0.1c0.1,2.4,0.1,4.9,0.1,7.5s0,5.8,0.1,8.6c0.8,0.1,1.5,0.3,2.4,0.3
		c2.3,0.1,4.4-0.8,5.8-2.4S319.3,35.1,319.2,33L319.2,33z"/>
	<path class="st5" d="M359,44.8h-5.8c-0.4-2.3-0.9-4.5-1.6-6.8h-8.6c-0.8,2.1-1.4,4.4-1.6,6.8H336c0-0.5,1.4-4.4,4.3-11.6
		c1.6-3.9,3.1-7.9,4.3-12.1h6.9c1,4,2.3,7.9,3.8,11.8C356.7,36.9,358,40.8,359,44.8z M350.6,34.5c-1.3-3.3-2.3-6.7-3.1-10.2h-0.3
		c0,0.5-1.1,3.9-3.3,10.2H350.6z"/>
	<path class="st5" d="M380.3,27.3c0.1,2.5-1,5-3.3,6.4c-2.4,1.5-5.2,2.1-7.9,2.1h-1.3c0,2.3,0,5.3,0.1,8.9h-5
		c0.1-3.5,0.3-7.5,0.3-12.3c0-4.4-0.1-8.2-0.3-11.3h3.1h2.6c1.3,0,2.4,0,3.4,0c2-0.1,4,0.5,5.8,1.5
		C379.5,23.8,380.4,25.6,380.3,27.3z M375.6,28.3c0-2.6-1.6-3.9-5.2-3.9c-0.9,0-1.8,0.1-2.8,0.3c0.1,2.3,0.1,4.9,0.1,7.8
		c0.4,0,0.8,0,1,0C373.4,32.6,375.5,31.2,375.6,28.3L375.6,28.3z"/>
	<path class="st5" d="M402.1,27.3c0.1,2.5-1,5-3.3,6.4c-2.4,1.5-5.2,2.1-7.9,2.1h-1.3c0,2.3,0,5.3,0.3,8.9h-5
		c0.1-3.5,0.3-7.5,0.3-12.3c0-4.4-0.1-8.2-0.3-11.3h3.1l2.5-0.1c1.3,0,2.4,0,3.4,0c2-0.1,4,0.5,5.8,1.5
		C401.2,23.7,402.1,25.6,402.1,27.3z M397.3,28.3c0-2.6-1.6-3.9-5.2-3.9c-0.9,0-1.8,0.1-2.8,0.3c0.1,2.3,0.3,4.9,0.3,7.8
		c0.4,0,0.8,0,1,0C395.1,32.6,397.3,31.2,397.3,28.3z"/>
	<path class="st5" d="M437.6,32.6c0.1,3.4-1.1,6.7-3.4,9.2c-2.1,2.4-5.3,3.8-8.4,3.6c-3,0.1-5.9-1.1-8-3.4c-2.1-2.3-3.4-5.4-3.3-8.6
		c-0.1-3.4,1.1-6.7,3.4-9.2c2.1-2.4,5.3-3.8,8.4-3.6c3,0,5.9,1.1,8,3.4C436.5,26.3,437.6,29.3,437.6,32.6z M432.5,33.1
		c0.1-2.3-0.6-4.4-1.9-6.2c-1.1-1.5-2.8-2.4-4.7-2.4c-1.8,0-3.5,0.9-4.5,2.4c-1.3,1.8-2,3.9-1.9,6c-0.1,2.3,0.6,4.4,1.9,6.2
		c1.1,1.5,2.9,2.4,4.8,2.4c1.8,0,3.5-0.9,4.5-2.4C432,37.4,432.6,35.3,432.5,33.1L432.5,33.1z"/>
	<path class="st5" d="M462.2,44.8h-4.5c0-0.5-1.6-3.1-5-7.8c-3.5-5-5.5-8.4-5.9-10.3h-0.3c0.3,2.4,0.4,4.8,0.5,7.2
		c0,3,0,6.7,0.3,10.9h-4.5c0.1-3.8,0.3-7.8,0.3-12.3s-0.1-8.2-0.3-11.3h5.4c0,0.6,1.5,3.1,4.5,7.7c2.3,3,4,6.3,5.5,9.7h0.3
		c-0.3-2.4-0.4-4.8-0.4-7.3c0-3.3-0.1-6.7-0.3-10.2h4.5c-0.1,3-0.3,6.8-0.3,11.3C461.9,36.9,462,41.2,462.2,44.8z"/>
</g>
</svg>
