<?xml version="1.0" encoding="utf-8"?>
<!-- Generator: Adobe Illustrator 16.0.0, SVG Export Plug-In . SVG Version: 6.00 Build 0)  -->
<!DOCTYPE svg PUBLIC "-//W3C//DTD SVG 1.1//EN" "http://www.w3.org/Graphics/SVG/1.1/DTD/svg11.dtd">
<svg version="1.1" id="Layer_1" xmlns="http://www.w3.org/2000/svg" xmlns:xlink="http://www.w3.org/1999/xlink" x="0px" y="0px"
	 width="548.66px" height="77.646px" viewBox="0 0 548.66 77.646" enable-background="new 0 0 548.66 77.646" xml:space="preserve">
<g>
	<polygon fill="#FFFFFF" points="127,1.78 82.725,1.78 74.029,1.78 41,1.78 84.151,76.006 101.156,45.048 	"/>
	<polygon fill="#FFFFFF" points="87.79,1.78 43.514,1.78 34.819,1.78 1.79,1.78 44.941,76.006 61.946,45.048 	"/>
	<polygon fill="#B3B3B3" points="41,1.78 64.093,41.503 87.79,1.78 	"/>
</g>
<path fill="#FFFFFF" d="M208.455,14.373l-12.32,49.42h-9.8l-10.43-38.22l-10.43,38.22h-9.8l-12.32-49.42h8.75l8.54,40.18
	l10.85-40.18h8.82l10.85,40.18l8.54-40.18H208.455z"/>
<path fill="#FFFFFF" d="M240.514,26.623c2.986,1.587,5.32,3.874,7,6.859c1.68,2.986,2.52,6.486,2.52,10.5
	c0,4.061-0.84,7.584-2.52,10.569c-1.68,2.987-4.014,5.274-7,6.86c-2.987,1.587-6.347,2.38-10.08,2.38
	c-3.734,0-7.082-0.793-10.045-2.38c-2.964-1.586-5.297-3.886-7-6.896c-1.704-3.011-2.555-6.521-2.555-10.535s0.851-7.514,2.555-10.5
	c1.703-2.985,4.036-5.272,7-6.859c2.963-1.586,6.311-2.38,10.045-2.38C234.167,24.243,237.527,25.037,240.514,26.623z
	 M224.764,32.572c-1.727,0.935-3.115,2.369-4.165,4.306c-1.05,1.938-1.575,4.306-1.575,7.104c0,2.848,0.525,5.228,1.575,7.141
	c1.05,1.914,2.438,3.337,4.165,4.271c1.726,0.935,3.616,1.399,5.67,1.399c2.053,0,3.943-0.466,5.67-1.399
	c1.726-0.934,3.115-2.355,4.165-4.271c1.05-1.913,1.575-4.293,1.575-7.141c0-2.8-0.525-5.168-1.575-7.104
	c-1.05-1.937-2.439-3.371-4.165-4.306c-1.727-0.933-3.617-1.399-5.67-1.399C228.38,31.173,226.49,31.64,224.764,32.572z"/>
<path fill="#FFFFFF" d="M268.514,26.798c2.426-1.47,5.226-2.205,8.399-2.205v8.682h-2.38c-3.5,0-6.313,0.852-8.435,2.555
	c-2.124,1.704-3.186,4.515-3.186,8.436v19.529h-7.979V25.224h7.979v7.561C264.22,30.263,266.087,28.268,268.514,26.798z"/>
<path fill="#FFFFFF" d="M301.903,63.793l-13.86-17.149v17.149h-7.979v-51.8h7.979v29.68l13.722-16.449h9.59l-16.8,19.181
	l17.22,19.39L301.903,63.793L301.903,63.793z"/>
<path opacity="0.6" fill="#FFFFFF" d="M367.203,56.863v6.93h-4.9c-4.105,0-7.223-0.991-9.346-2.975s-3.185-5.285-3.185-9.905V32.013
	h-5.53v-6.79h5.53v-9.591h8.05v9.591h9.311v6.79h-9.311v19.039c0,2.194,0.408,3.711,1.227,4.551c0.814,0.841,2.25,1.261,4.305,1.261
	L367.203,56.863L367.203,56.863z"/>
<path opacity="0.6" fill="#FFFFFF" d="M385.471,26.798c2.426-1.47,5.226-2.205,8.399-2.205v8.682h-2.381
	c-3.5,0-6.313,0.852-8.435,2.555c-2.124,1.704-3.187,4.515-3.187,8.436v19.529h-7.979V25.224h7.979v7.561
	C381.177,30.263,383.044,28.268,385.471,26.798z"/>
<path opacity="0.6" fill="#FFFFFF" d="M432.58,45.593H402.9c0.141,3.968,1.236,6.907,3.291,8.82c2.053,1.914,4.596,2.87,7.629,2.87
	c2.66,0,4.912-0.677,6.756-2.03c1.842-1.354,2.975-3.149,3.395-5.391h8.541c-0.516,2.707-1.588,5.11-3.221,7.21
	c-1.635,2.101-3.758,3.745-6.369,4.936c-2.615,1.189-5.531,1.785-8.75,1.785c-3.734,0-7.035-0.793-9.906-2.38
	c-2.869-1.586-5.121-3.873-6.754-6.86c-1.635-2.985-2.45-6.51-2.45-10.569c0-4.014,0.815-7.514,2.45-10.5
	c1.633-2.985,3.885-5.272,6.754-6.859c2.871-1.586,6.172-2.38,9.906-2.38c3.779,0,7.08,0.781,9.904,2.345
	c2.822,1.563,4.992,3.71,6.51,6.439c1.516,2.729,2.275,5.774,2.275,9.136C432.861,43.469,432.765,44.612,432.58,45.593z
	 M423.515,35.618c-0.957-1.703-2.266-2.964-3.92-3.78c-1.658-0.815-3.465-1.226-5.426-1.226c-3.127,0-5.74,0.957-7.84,2.87
	c-2.102,1.914-3.244,4.736-3.43,8.471h21.908C424.904,39.433,424.47,37.322,423.515,35.618z"/>
<path opacity="0.6" fill="#FFFFFF" d="M462.189,26.833c2.475,1.728,4.225,4.015,5.25,6.859v-8.96h7.98v38.569h-7.98v-8.96
	c-1.025,2.848-2.775,5.135-5.25,6.86s-5.461,2.59-8.961,2.59c-3.357,0-6.357-0.793-8.994-2.38c-2.637-1.586-4.701-3.873-6.193-6.86
	c-1.494-2.985-2.24-6.51-2.24-10.569c0-4.014,0.746-7.514,2.24-10.5c1.492-2.985,3.557-5.272,6.193-6.859
	c2.637-1.586,5.637-2.38,8.994-2.38C456.728,24.243,459.714,25.106,462.189,26.833z M447.173,34.638
	c-2.123,2.264-3.186,5.379-3.186,9.345c0,3.968,1.063,7.082,3.186,9.346s4.959,3.396,8.506,3.396c2.24,0,4.246-0.525,6.02-1.575
	s3.174-2.53,4.201-4.444c1.025-1.913,1.539-4.153,1.539-6.721c0-2.521-0.514-4.748-1.539-6.686c-1.027-1.937-2.428-3.43-4.201-4.479
	s-3.779-1.574-6.02-1.574C452.132,31.243,449.296,32.375,447.173,34.638z"/>
<path opacity="0.6" fill="#FFFFFF" d="M541.392,28.933c2.73,2.895,4.098,7.023,4.098,12.391v22.47h-7.98v-21.63
	c0-3.359-0.84-5.961-2.52-7.805c-1.682-1.844-3.99-2.767-6.932-2.767c-3.127,0-5.611,0.992-7.455,2.977
	c-1.844,1.983-2.766,4.889-2.766,8.715v20.51h-7.979v-21.63c0-3.359-0.842-5.961-2.521-7.805s-3.99-2.767-6.93-2.767
	c-3.127,0-5.611,0.992-7.455,2.977c-1.844,1.982-2.766,4.889-2.766,8.715v20.51h-7.979V25.224h7.979v8.051
	c0.98-2.801,2.613-4.946,4.9-6.44c2.285-1.493,4.969-2.24,8.049-2.24c3.223,0,6.008,0.795,8.365,2.381
	c2.355,1.587,4.072,3.874,5.145,6.859c1.121-2.893,2.916-5.155,5.393-6.79c2.473-1.633,5.271-2.45,8.398-2.45
	C535.011,24.593,538.664,26.04,541.392,28.933z"/>
<g opacity="0.6">
	<path fill="#FFFFFF" d="M338.296,27.706c2.69,2.277,4.334,5.325,4.934,9.144h-7.452c-0.321-2.069-1.207-3.736-2.655-5.002
		c-1.449-1.266-3.371-1.897-5.763-1.897c-1.979,0-3.508,0.472-4.589,1.414c-1.081,0.943-1.621,2.22-1.621,3.83
		c0,1.196,0.391,2.162,1.174,2.896c0.781,0.736,1.76,1.313,2.932,1.727c1.174,0.413,2.841,0.874,5.004,1.38
		c2.852,0.645,5.162,1.311,6.935,2.001c1.771,0.689,3.288,1.783,4.554,3.277s1.897,3.529,1.897,6.105
		c0,3.174-1.208,5.751-3.623,7.729c-2.415,1.979-5.67,2.968-9.763,2.968c-4.738,0-8.568-1.104-11.489-3.313
		s-4.681-5.289-5.278-9.246h7.659c0.229,2.07,1.149,3.75,2.761,5.037c1.609,1.288,3.727,1.933,6.348,1.933
		c1.886,0,3.369-0.493,4.451-1.483c1.08-0.988,1.621-2.242,1.621-3.76c0-1.334-0.414-2.393-1.242-3.175
		c-0.827-0.781-1.862-1.392-3.104-1.828c-1.241-0.438-2.944-0.885-5.106-1.347c-2.76-0.644-5.002-1.286-6.728-1.932
		c-1.726-0.644-3.196-1.689-4.416-3.14c-1.219-1.45-1.827-3.415-1.827-5.899c0-3.22,1.207-5.83,3.623-7.832
		c2.414-2.001,5.76-3.001,10.038-3.001C332.028,24.291,335.605,25.43,338.296,27.706z"/>
</g>
</svg>
